<svg width="358" height="358" viewBox="0 0 358 358" fill="none" xmlns="http://www.w3.org/2000/svg">
<g filter="url(#filter0_i_5_2)">
<path d="M220.073 177.86C220.229 177.573 223.503 174.806 223.992 174.387C226.289 172.416 228.268 170.316 230.328 168.101C235.816 162.244 240.598 155.763 244.575 148.792C256.122 128.918 261.922 104.951 257.375 82.1251C254.99 70.1592 247.661 57.192 239.118 48.5025C237.011 46.3525 234.793 44.3133 232.475 42.3932C228.95 39.4977 218.994 33.0716 217.97 29.0157C217.464 27.0125 217.762 24.9298 218.892 23.1907C220.136 21.2771 222.132 20.0109 224.354 19.5529C234.074 17.5497 259.372 32.051 267.746 37.557C305.285 62.0752 331.353 100.694 340.054 144.678C348.91 187.684 340.353 232.448 316.258 269.155C291.778 306.99 253.074 333.353 208.903 342.278C165.139 351.271 119.597 342.318 82.494 317.429C45.3756 292.799 19.5367 254.456 10.6412 210.807C5.57343 185.911 5.88287 156.478 15.0812 132.499C16.6497 128.41 18.8082 123.415 21.2112 119.782C22.3569 117.756 24.1801 114.94 25.5753 113.099C33.4456 101.576 45.5017 95.2703 59.3269 94.3718C65.1648 94.0432 71.342 94.0711 77.1774 94.9714C89.6014 96.8881 102.306 102.235 112.812 109.088C116.903 111.757 122.604 116.502 126.282 119.752C138.124 130.217 148.336 143.571 160.082 154.054C175.136 167.491 198.766 179.123 219.403 177.947C219.629 177.934 219.852 177.896 220.073 177.86Z" fill="#8201FE"/>
<path d="M59.3269 94.3718C65.1648 94.0432 71.342 94.0712 77.1774 94.9714C89.6014 96.8881 102.306 102.235 112.812 109.088C116.903 111.757 122.604 116.502 126.282 119.752C138.124 130.217 148.336 143.571 160.082 154.055C175.136 167.491 198.766 179.123 219.403 177.947C219.629 177.934 219.852 177.896 220.073 177.86L220.268 178.168C219.972 179.036 218.332 179.698 217.628 180.22C209.1 186.498 199.685 191.219 189.744 194.877C160.137 205.592 130.198 204.195 100.022 195.798C66.4207 186.448 26.1117 162.635 25.191 123.233C25.1277 120.526 25.6468 118.018 25.4032 115.14C23.41 116.738 22.4451 118.962 21.2112 119.782C22.3569 117.756 24.1802 114.94 25.5753 113.1C33.4456 101.576 45.5017 95.2703 59.3269 94.3718Z" fill="#52128E"/>
<path d="M25.5752 113.1C33.4455 101.576 45.5016 95.2703 59.3268 94.3718C58.0891 96.1566 53.139 95.9792 51.0664 96.5272C44.0636 98.3775 37.0864 101.667 32.0514 106.992C30.9174 108.174 26.9118 113.384 25.8502 113.287L25.5752 113.1Z" fill="#49077B"/>
<path d="M161.275 10.3965C169.907 10.26 189.726 9.60479 192.825 20.4263C193.729 23.5823 190.634 26.3048 188.165 27.7755C184.171 30.1553 179.378 31.386 175.398 33.8431C165.264 40.0042 160.329 51.0578 153.845 60.4542C147.368 69.8116 140.284 74.5495 129.054 76.4852C127.855 76.592 126.644 76.7004 125.441 76.7313C118.141 76.9913 111.046 74.2841 105.774 69.2269C100.583 64.2672 97.5751 57.449 97.4107 50.2717C96.9475 24.5648 126.007 14.4032 146.909 11.3107C151.688 10.6036 156.461 10.4704 161.275 10.3965Z" fill="#8201FE"/>
</g>
<defs>
<filter id="filter0_i_5_2" x="0" y="0" width="358" height="362" filterUnits="userSpaceOnUse" color-interpolation-filters="sRGB">
<feFlood flood-opacity="0" result="BackgroundImageFix"/>
<feBlend mode="normal" in="SourceGraphic" in2="BackgroundImageFix" result="shape"/>
<feColorMatrix in="SourceAlpha" type="matrix" values="0 0 0 0 0 0 0 0 0 0 0 0 0 0 0 0 0 0 127 0" result="hardAlpha"/>
<feOffset dy="4"/>
<feGaussianBlur stdDeviation="2"/>
<feComposite in2="hardAlpha" operator="arithmetic" k2="-1" k3="1"/>
<feColorMatrix type="matrix" values="0 0 0 0 0 0 0 0 0 0 0 0 0 0 0 0 0 0 0.25 0"/>
<feBlend mode="normal" in2="shape" result="effect1_innerShadow_5_2"/>
</filter>
</defs>
</svg>
