<svg width="522" height="522" viewBox="0 0 522 522" fill="none" xmlns="http://www.w3.org/2000/svg">
<g filter="url(#filter0_i_216_111)">
<path d="M398.479 49.4407C407.546 49.5941 413.18 50.1974 421.918 53.3553C438.585 59.3099 452.187 71.6706 459.705 87.6943C467.394 103.948 468.202 122.616 461.946 139.473C458.957 147.553 454.316 154.562 449.971 161.973L433.061 190.723L372.065 294.327L309.597 400.451L291.653 430.933C280.771 449.584 276.337 459.362 255.682 469.268C225.103 483.933 188.719 473.676 170.597 444.999C167.839 440.633 165.66 435.365 163.555 430.679L155.96 413.734L114.052 320.444C107.23 305.241 100.293 289.984 93.5615 274.78C89.3736 265.658 90.3821 253.334 94.4746 244.157C111.106 206.864 178.24 179.623 209.793 212.547C215.448 218.447 221.604 235.382 225.489 243.432C229.438 251.616 241.314 252.398 245.926 244.568L311.878 132.613L332.566 97.4582C337.323 89.3735 343.546 77.593 349.722 71.0855C363.558 56.5101 378.698 50.237 398.479 49.4407Z" fill="#8201FE"/>
</g>
<g filter="url(#filter1_i_216_111)">
<path d="M117.775 27.5231C123.778 27.239 126.89 29.5662 129.255 34.8495C133.227 43.728 137.33 52.5563 141.385 61.3985L167.343 118.001L178.82 143.043C184.049 154.318 189.999 163.251 185.286 175.912C180.609 188.47 171.702 192.475 159.26 194.556C141.93 197.455 124.595 205.142 110.284 215.253C97.6346 224.407 89.7936 233.673 72.6595 227.502C69.911 226.377 67.3578 224.822 65.0948 222.896C58.5856 217.329 54.2408 205.163 50.5987 197.206L35.7765 164.922L11.4327 111.786C8.43887 105.2 5.31284 98.6577 2.34579 92.0627C1.79416 90.8366 1.04057 88.9796 1.00228 87.6449C0.918811 84.7353 3.13918 81.4501 4.97243 79.329C6.72825 77.2974 8.85904 75.8306 11.2378 74.645C17.6991 71.4243 24.428 68.4219 30.9876 65.4012L64.8396 49.7533L93.78 36.3662C101.428 32.8216 109.356 28.0889 117.775 27.5231Z" fill="#52128E"/>
</g>
<g filter="url(#filter2_i_216_111)">
<path d="M457.844 68.5741C457.617 68.2102 457.672 67.7371 457.98 67.4388C458.31 67.1203 458.822 67.0969 459.173 67.3914C512.224 111.907 546.107 206.978 496.422 265.978C480.383 285.024 446.096 306.104 421.831 287.642C415.028 282.466 411.448 272.228 411.004 264.005C409.749 223.993 445.064 191.552 460.303 156.215C467.279 140.288 470.314 122.913 469.151 105.564C468.265 93.5089 464.33 78.9471 457.844 68.5741Z" fill="#52128E"/>
</g>
<defs>
<filter id="filter0_i_216_111" x="90.8715" y="49.4407" width="385.246" height="436.475" filterUnits="userSpaceOnUse" color-interpolation-filters="sRGB">
<feFlood flood-opacity="0" result="BackgroundImageFix"/>
<feBlend mode="normal" in="SourceGraphic" in2="BackgroundImageFix" result="shape"/>
<feColorMatrix in="SourceAlpha" type="matrix" values="0 0 0 0 0 0 0 0 0 0 0 0 0 0 0 0 0 0 127 0" result="hardAlpha"/>
<feOffset dx="10" dy="10"/>
<feGaussianBlur stdDeviation="10"/>
<feComposite in2="hardAlpha" operator="arithmetic" k2="-1" k3="1"/>
<feColorMatrix type="matrix" values="0 0 0 0 0.321569 0 0 0 0 0.0705882 0 0 0 0 0.556863 0 0 0 1 0"/>
<feBlend mode="normal" in2="shape" result="effect1_innerShadow_216_111"/>
</filter>
<filter id="filter1_i_216_111" x="1" y="27.5" width="196" height="212" filterUnits="userSpaceOnUse" color-interpolation-filters="sRGB">
<feFlood flood-opacity="0" result="BackgroundImageFix"/>
<feBlend mode="normal" in="SourceGraphic" in2="BackgroundImageFix" result="shape"/>
<feColorMatrix in="SourceAlpha" type="matrix" values="0 0 0 0 0 0 0 0 0 0 0 0 0 0 0 0 0 0 127 0" result="hardAlpha"/>
<feOffset dx="10" dy="10"/>
<feGaussianBlur stdDeviation="10"/>
<feComposite in2="hardAlpha" operator="arithmetic" k2="-1" k3="1"/>
<feColorMatrix type="matrix" values="0 0 0 0 0.509804 0 0 0 0 0.00392157 0 0 0 0 0.996078 0 0 0 1 0"/>
<feBlend mode="normal" in2="shape" result="effect1_innerShadow_216_111"/>
</filter>
<filter id="filter2_i_216_111" x="410.971" y="67.1844" width="119.681" height="237.583" filterUnits="userSpaceOnUse" color-interpolation-filters="sRGB">
<feFlood flood-opacity="0" result="BackgroundImageFix"/>
<feBlend mode="normal" in="SourceGraphic" in2="BackgroundImageFix" result="shape"/>
<feColorMatrix in="SourceAlpha" type="matrix" values="0 0 0 0 0 0 0 0 0 0 0 0 0 0 0 0 0 0 127 0" result="hardAlpha"/>
<feOffset dx="10" dy="10"/>
<feGaussianBlur stdDeviation="10"/>
<feComposite in2="hardAlpha" operator="arithmetic" k2="-1" k3="1"/>
<feColorMatrix type="matrix" values="0 0 0 0 0.509804 0 0 0 0 0.00392157 0 0 0 0 0.996078 0 0 0 1 0"/>
<feBlend mode="normal" in2="shape" result="effect1_innerShadow_216_111"/>
</filter>
</defs>
</svg>
