<svg width="59" height="59" viewBox="0 0 59 59" fill="none" xmlns="http://www.w3.org/2000/svg">
<path d="M49.9187 49.918C49.5766 50.2601 49.2277 50.5922 48.8732 50.9138L7.56687 9.60742C7.88849 9.25296 8.21982 8.90337 8.56193 8.56126C8.90555 8.21765 9.25615 7.88499 9.61223 7.56206L50.9186 48.8684C50.5957 49.2245 50.2623 49.5744 49.9187 49.918ZM46.7954 52.6298C46.0007 53.2278 45.1828 53.78 44.3447 54.2863L4.19431 14.1359C4.70066 13.2978 5.25287 12.4799 5.8509 11.6852L46.7954 52.6298ZM11.6907 5.84677C12.4835 5.25054 13.2993 4.70006 14.1352 4.19501L54.2856 44.3454C53.7806 45.1813 53.2301 45.9972 52.6339 46.7899L11.6907 5.84677ZM16.5977 2.86366C17.5438 2.41019 18.5088 2.01003 19.4889 1.66421L56.8164 38.9917C56.4706 39.9718 56.0705 40.9369 55.617 41.883L16.5977 2.86366ZM41.8816 55.617C40.935 56.0707 39.9697 56.4719 38.9889 56.8178L1.66281 19.4917C2.00873 18.5109 2.40995 17.5457 2.86365 16.5991L41.8816 55.617ZM22.4189 0.800349C23.5724 0.52483 24.7394 0.320782 25.913 0.187155L58.2935 32.5677C58.1599 33.7412 57.9558 34.9082 57.6803 36.0618L22.4189 0.800349ZM36.0583 57.681C34.9043 57.9565 33.7369 58.1607 32.5628 58.2942L0.186446 25.9178C0.319927 24.7438 0.524158 23.5764 0.79964 22.4223L36.0583 57.681ZM29.5196 2.04784e-05C31.0243 0.0143204 32.5279 0.14297 34.0164 0.388101L58.0926 24.4643C58.3376 25.9527 58.4664 27.4564 58.4806 28.961L29.5196 2.04784e-05ZM28.9555 58.4807C27.4564 58.4662 25.9583 58.3376 24.4753 58.094L0.386701 34.0054C0.14304 32.5223 0.0145328 31.0243 1.9166e-06 29.5252L28.9555 58.4807ZM19.3557 56.7681C15.4158 55.3565 11.7177 53.0744 8.56193 49.9187C5.40632 46.7631 3.12425 43.0647 1.71253 39.125L19.3557 56.7681ZM39.1402 1.71807C43.0742 3.13022 46.7672 5.4104 49.9187 8.56195C53.0703 11.7136 55.3505 15.4063 56.7626 19.3405L39.1402 1.71807Z" fill="#212122"/>
</svg>
