<?xml version="1.0" encoding="utf-8" ?><svg xmlns="http://www.w3.org/2000/svg" xmlns:xlink="http://www.w3.org/1999/xlink" width="2552" height="1203" viewBox="0 0 2552 1203"><path fill="#6F42C1" transform="scale(11.2423 11.243)" d="M155.847 6.332C157.306 5.90019 166.853 11.5636 168.716 12.6287C171.064 13.9714 174.491 17.4225 176.662 19.3792L189.975 31.4147L203.211 43.3794C205.602 45.5134 209.582 48.8367 211.661 51.1047C212.124 54.6572 211.928 58.184 211.469 61.7142C211.412 62.1507 211.352 62.4553 211.498 62.8853L212.595 63.0938C212.962 63.8853 212.741 64.696 212.574 65.6229C210.407 77.6563 202.649 89.4774 192.666 96.5352C190.064 98.3753 187.162 99.5099 184.607 101.335C182.536 99.2335 176.142 94.1317 173.725 92.1558C170.035 89.1401 165.363 84.8659 161.673 82.0879C168.95 82.3825 172.246 81.2872 178.505 77.9574C181.091 76.417 188.562 68.6245 188.136 65.8376L187.004 65.7462C186.934 65.6555 186.85 65.5493 186.755 65.4278C187.383 63.3578 188.173 60.5441 188.379 58.5079C189.12 51.1942 187.529 44.72 182.997 38.9624C178.769 33.5273 172.554 29.9958 165.721 29.1456C147.43 27.0066 141.457 40.7073 129.75 49.943C124.124 44.6262 118.69 39.567 113.159 34.0794C115.817 30.9733 120.069 27.2159 123.05 24.2692C133.605 13.8334 140.958 8.56793 155.847 6.332ZM150.74 28.2675C154.896 25.3357 162.328 18.7568 166.801 15.5206C166.833 15.3674 166.861 15.237 166.883 15.1294L166.617 15.0483C164.539 16.4357 151.246 26.8069 150.478 28.3794L150.74 28.2675ZM142.578 18.6593C141.96 18.1472 141.721 18.204 140.761 18.293C140.48 18.3207 140.199 18.3536 139.918 18.3916L140.131 18.764C141.161 18.8348 141.55 18.7933 142.578 18.6593ZM137.58 19.657C136.795 19.0041 135.937 19.2365 134.937 19.3831L135.128 19.733C136.176 19.8292 136.532 19.7907 137.58 19.657ZM147.578 17.6646C146.999 17.1783 146.87 17.1947 145.962 17.2738C145.622 17.3069 145.282 17.3467 144.942 17.3932L145.128 17.7278C146.176 17.8308 146.528 17.7945 147.578 17.6646ZM152.575 16.6734C151.78 16.006 150.961 16.2601 149.944 16.3919L150.127 16.7249C151.173 16.8307 151.527 16.7969 152.575 16.6734ZM157.654 15.6271C156.759 15.0762 155.925 15.2798 154.854 15.3993C155.799 15.9501 156.598 15.8505 157.654 15.6271Z"/><path fill="#6F42C1" fill-opacity="0.80784315" transform="scale(11.2423 11.243)" d="M166.617 15.0483L166.883 15.1294C166.861 15.237 166.833 15.3674 166.801 15.5206C162.328 18.7568 154.896 25.3357 150.74 28.2675L150.478 28.3794C151.246 26.8069 164.539 16.4357 166.617 15.0483Z"/><path fill="#6F42C1" fill-opacity="0.82352942" transform="scale(11.2423 11.243)" d="M139.918 18.3916C140.199 18.3536 140.48 18.3207 140.761 18.293C141.721 18.204 141.96 18.1472 142.578 18.6593C141.55 18.7933 141.161 18.8348 140.131 18.764L139.918 18.3916Z"/><path fill="#6F42C1" fill-opacity="0.81568629" transform="scale(11.2423 11.243)" d="M134.937 19.3831C135.937 19.2365 136.795 19.0041 137.58 19.657C136.532 19.7907 136.176 19.8292 135.128 19.733L134.937 19.3831Z"/><path fill="#6F42C1" fill-opacity="0.82745099" transform="scale(11.2423 11.243)" d="M144.942 17.3932C145.282 17.3467 145.622 17.3069 145.962 17.2738C146.87 17.1947 146.999 17.1783 147.578 17.6646C146.528 17.7945 146.176 17.8308 145.128 17.7278L144.942 17.3932Z"/><path fill="#6F42C1" fill-opacity="0.82745099" transform="scale(11.2423 11.243)" d="M149.944 16.3919C150.961 16.2601 151.78 16.006 152.575 16.6734C151.527 16.7969 151.173 16.8307 150.127 16.7249L149.944 16.3919Z"/><path fill="#6F42C1" fill-opacity="0.8392157" transform="scale(11.2423 11.243)" d="M154.854 15.3993C155.925 15.2798 156.759 15.0762 157.654 15.6271C156.598 15.8505 155.799 15.9501 154.854 15.3993Z"/><path fill="#6F42C1" transform="scale(11.2423 11.243)" d="M179.427 8.2042C184.993 9.62959 190.45 12.6857 194.929 16.2146C207.228 25.9069 212.507 36.8277 214.269 52.0235C213.061 51.0075 211.409 49.3179 210.177 48.1822C207.748 46.3634 202.363 40.9861 199.715 38.6567C190.364 30.4326 181.167 21.1972 171.7 13.1678C173.458 11.656 177.375 9.42334 179.427 8.2042Z"/><path fill="#6F42C1" transform="scale(11.2423 11.243)" d="M160.909 2.22386C165.587 2.57077 173.717 3.18644 177.85 5.15584L177.978 5.55269C177.027 5.97403 176.07 6.38296 175.109 6.77937C173.453 7.44251 170.773 8.88965 169.102 9.72656C167.269 8.22825 161.99 4.02598 160.909 2.22386Z"/><path fill="#6F42C1" transform="scale(11.2423 11.243)" d="M217.179 55.9122C219.026 56.4291 220.797 57.1857 222.447 58.1627C221.553 59.7113 220.74 61.3091 219.916 62.8959C219.568 63.7226 218.753 64.7653 218.21 65.5193C217.84 62.4109 217.446 59.0203 217.179 55.9122Z"/><path fill="#6F42C1" transform="scale(11.2423 11.243)" d="M158.84 73.5778C160.031 73.7024 161.685 73.3164 162.305 74.438C162.043 75.1723 159.425 77.0578 158.642 77.6946C158.295 78.0486 156.901 79.0539 156.435 79.4061C156.274 77.7511 155.827 75.6879 156.576 74.309C157.508 73.6018 157.611 73.7644 158.84 73.5778Z"/><path fill="#6F42C1" transform="scale(11.2423 11.243)" d="M85.095 60.8243C86.1519 60.9938 99.6524 74.5447 101.848 76.4561C99.1008 79.0624 91.1731 87.6858 88.2484 89.2758C81.4714 92.9603 70.08 95.0908 63.4557 99.3969C63.0199 99.6802 60.1631 103.197 59.5428 103.9C56.475 104.724 52.3558 104.58 49.1876 104.383C45.1801 103.96 39.8916 103.431 36.2205 101.69C36.7311 93.9602 37.6024 84.3491 37.6786 76.687C41.64 79.3687 46.0217 80.9253 50.8162 81.3012C66.1978 82.5073 74.4007 70.2498 85.095 60.8243Z"/><path fill="#6F42C1" transform="scale(11.2423 11.243)" d="M94.2597 90.2584L94.418 90.3979L94.4039 90.8147C88.0582 97.2237 84.1321 99.5656 75.8996 103.129L72.8815 101.159L70.3424 99.3763C73.1438 98.0516 76.5688 96.8778 79.522 95.7654L94.2597 90.2584Z"/><path fill="#6F42C1" transform="scale(11.2423 11.243)" d="M36.0956 37.6481C36.9983 37.7545 42.1365 42.0483 42.3657 42.8664L41.9453 43.2207C36.1122 44.5034 36.7491 43.2835 36.0956 37.6481Z"/><path fill="#6F42C1" transform="scale(11.2423 11.243)" d="M64.4192 100.402L64.7797 100.526C65.1273 101.205 65.6789 104.24 65.8677 105.165C64.2951 105.777 63.1372 106.029 61.4843 106.285L60.453 106.344L60.1167 105.977C60.0739 104.674 63.4083 101.482 64.4192 100.402Z"/><path fill="#6F42C1" transform="scale(11.2423 11.243)" d="M0 49.3534L0.0310421 49.2886C1.47794 46.1946 0.969131 41.2003 1.84028 37.9984C6.37357 21.3367 21.7863 6.69632 39.0022 3.59662C39.1397 5.13863 39.258 6.39948 39.2349 7.94607C46.4035 5.412 57.3981 5.48407 64.7127 7.19134C79.6088 10.6681 89.4422 21.8615 100.035 32.094L121.664 52.8247L141.29 71.4402C143.828 73.8743 148.517 77.5918 149.815 80.6432C154.316 83.2809 157.33 82.5081 161.21 84.3052C162.619 84.958 167.965 89.6585 169.5 90.9699L183.202 102.594C178.868 104.172 175.389 105.44 170.804 106.34C170.217 106.455 169.222 106.685 168.742 107L155.913 107C155.207 106.051 154.507 105.098 153.811 104.141C151.738 103.371 148.651 102.623 146.458 101.956C142.523 100.718 138.773 98.9537 135.311 96.7101C130.106 93.3548 126.328 89.1004 121.84 84.9047L87.932 52.6009C81.8638 46.7306 75.7925 40.4601 69.4069 34.9532C67.7534 33.5272 63.9522 31.396 61.8982 30.6466C54.4517 27.9297 46.1484 29.2681 39.121 32.6411L38.8814 27.7462C36.6834 28.9244 28.4095 34.0558 28.5135 36.5848L29.635 37.1702C29.788 37.6465 29.8367 37.5032 29.5245 37.9024C22.3373 47.0932 23.5486 62.846 31.5458 71.2204C33.2079 72.9608 34.9688 74.241 36.6114 75.8497L35.775 89.4134C35.5374 92.9398 35.1345 97.1342 35.1398 100.578C16.7975 92.808 6.75824 82.0349 2.20001 62.4372L0 61.6835L0 49.3534ZM82.2876 30.7362L82.8762 30.5435L82.7606 30.3349C81.7235 30.2541 81.3266 30.2192 80.3044 30.3735L79.7044 30.659C80.1462 30.9757 81.653 30.776 82.2876 30.7362ZM87.5109 29.758L87.9419 29.483C87.3461 29.1517 85.9993 29.2848 85.3057 29.3796L84.9385 29.6871C85.4047 29.9777 86.8754 29.7954 87.5109 29.758ZM77.7989 31.6265L77.622 31.2861C76.518 31.1622 76.0176 31.247 74.9399 31.391L75.1269 31.7245C76.2965 31.8435 76.6306 31.8053 77.7989 31.6265ZM92.5593 28.6612C92.0008 28.2042 91.7629 28.1984 90.917 28.283C90.672 28.3096 90.4278 28.3424 90.1845 28.3816L90.3755 28.7326C91.3216 28.8303 91.6138 28.7932 92.5593 28.6612Z"/><path fill="#6F42C1" fill-opacity="0.81960785" transform="scale(11.2423 11.243)" d="M80.3044 30.3735C81.3266 30.2192 81.7235 30.2541 82.7606 30.3349L82.8762 30.5435L82.2876 30.7362C81.653 30.776 80.1462 30.9757 79.7044 30.659L80.3044 30.3735Z"/><path fill="#6F42C1" fill-opacity="0.81176472" transform="scale(11.2423 11.243)" d="M85.3057 29.3796C85.9993 29.2848 87.3461 29.1517 87.9419 29.483L87.5109 29.758C86.8754 29.7954 85.4047 29.9777 84.9385 29.6871L85.3057 29.3796Z"/><path fill="#6F42C1" fill-opacity="0.81960785" transform="scale(11.2423 11.243)" d="M74.9399 31.391C76.0176 31.247 76.518 31.1622 77.622 31.2861L77.7989 31.6265C76.6306 31.8053 76.2965 31.8435 75.1269 31.7245L74.9399 31.391Z"/><path fill="#6F42C1" fill-opacity="0.80784315" transform="scale(11.2423 11.243)" d="M90.1845 28.3816C90.4278 28.3424 90.672 28.3096 90.917 28.283C91.7629 28.1984 92.0008 28.2042 92.5593 28.6612C91.6138 28.7932 91.3216 28.8303 90.3755 28.7326L90.1845 28.3816Z"/><path fill="#6F42C1" transform="scale(11.2423 11.243)" d="M148.414 0L155.504 0C156.564 1.2352 161.618 5.09269 161.972 6.33884L161.542 6.42508C158.975 5.72304 150.419 1.70516 148.414 0Z"/><path fill="#6F42C1" transform="scale(11.2423 11.243)" d="M227 64.1242L227 64.9559C226.559 65.4805 225.089 68.6368 224.711 69.4074C222.754 70.2837 218.681 71.7486 216.644 72.2705C218.786 70.369 224.78 65.4985 227 64.1242Z"/></svg>