<?xml version="1.0" encoding="utf-8" ?><svg xmlns="http://www.w3.org/2000/svg" xmlns:xlink="http://www.w3.org/1999/xlink" width="1200" height="1200" viewBox="0 0 1200 1200"><path fill="#B71E1D" d="M303.438 178.116C319.293 145.948 379.901 121.28 412.406 110.291C443.8 99.6768 478.068 91.1557 510.369 83.529C518.891 81.5169 542.305 75.4753 550.188 74.7901C550.653 92.3052 550.875 109.947 552.871 127.372C558.223 174.088 569.79 220.637 594.197 261.284C597.591 262.537 604.662 263.261 608.407 263.85L638.905 268.649C668.055 273.157 697.088 278.392 725.976 284.348C764.532 291.985 802.367 302.896 839.068 316.964C918.957 348.211 1031.6 416.397 1073.31 494.843C1033.39 499.988 992.103 504.846 952.399 511.244C870.415 524.517 789.127 541.774 708.822 562.955C736.805 688.901 731.889 808.805 690.073 931.041C675.296 975.499 655.248 1018.03 630.358 1057.72C626.688 1063.48 622.856 1069.14 618.866 1074.69C492.358 1077.4 283.73 1047.47 186.776 958.315C166.149 939.347 149.45 909.417 149.57 880.451C149.732 841.494 172.953 804.393 199.078 776.674C199.554 776.168 199.69 776.102 200.312 775.595C210.233 764.241 221.795 755.314 233.378 745.806C236.179 743.507 239.573 740.857 242.098 738.326C302.766 677.5 376.957 616.93 410.831 535.718C417.64 519.507 422.279 502.468 424.627 485.043C430.33 441.721 421.704 383.19 403.488 343.435C395.221 325.465 384.511 308.724 371.661 293.686C348.605 266.158 317.014 243.006 302.396 209.108C297.698 198.216 298.887 188.791 303.438 178.116ZM447.633 650.272C442.477 651.498 424.269 660.06 419.229 662.697C402.175 670.692 385.284 679.034 368.568 687.716C361.085 691.587 349.542 697.277 343.053 702.078C308.669 720.448 274.105 738.478 239.365 756.167C231.957 759.965 206.58 773.867 200.312 775.595C199.69 776.102 199.554 776.168 199.078 776.674C172.953 804.393 149.732 841.494 149.57 880.451C149.45 909.417 166.149 939.347 186.776 958.315C283.73 1047.47 492.358 1077.4 618.866 1074.69C622.856 1069.14 626.688 1063.48 630.358 1057.72C655.248 1018.03 675.296 975.499 690.073 931.041C731.889 808.805 736.805 688.901 708.822 562.955C704.658 564.247 686.842 568.296 685.132 570.063L684.391 569.619C660.586 575.666 629.4 584.533 605.93 592.373C589.17 597.98 571.364 602.771 554.891 608.97L554.654 609.86C550.274 609.077 487.828 633.261 478.496 636.958L455.182 646.608C453.148 647.371 448.919 648.695 447.633 650.272ZM410.116 232.403C427.292 236.007 444.545 239.234 461.862 242.082C470.742 243.556 480.841 244.769 489.473 246.395C512.285 249.978 539.292 254.828 561.933 256.922C566.885 257.745 590.041 261.619 594.197 261.284C569.79 220.637 558.223 174.088 552.871 127.372C550.875 109.947 550.653 92.3052 550.188 74.7901C542.305 75.4753 518.891 81.5169 510.369 83.529C478.068 91.1557 443.8 99.6768 412.406 110.291C379.901 121.28 319.293 145.948 303.438 178.116C308.641 185.211 316.492 195.965 323.982 200.667C348.1 219.253 380.475 227.085 410.116 232.403ZM495.973 419.101C508.174 409.598 521.683 399.537 533.504 389.76C503.447 379.756 469.415 370.031 438.093 364.769C446.703 395.049 451.101 426.371 451.164 457.851C465.504 444.324 480.784 431.675 495.973 419.101ZM575.339 360.412C595.229 346.804 615.645 333.98 636.538 321.969C649.856 314.556 663.306 307.384 676.883 300.456C651.592 295.906 626.236 291.73 600.823 287.927C588.323 285.997 573.819 283.366 561.425 282.209C573.428 311.31 575.075 329.433 575.339 360.412ZM549.974 369.087C550.932 342.791 549.655 316.513 538.777 292.078C537.624 289.488 535.363 283.545 533.056 282.319C501.247 300.743 478.361 316.232 451.052 341.874C463.693 343.985 475.236 347.664 487.296 350.019C508.419 355.592 529.326 361.953 549.974 369.087ZM871.932 373.413C811.263 386.685 751.997 407.967 694.668 431.76C692.181 432.791 689.697 433.887 687.185 434.846C703.034 445.658 715.665 454.844 730.898 466.663C747.508 480.877 759.981 492.263 774.414 508.789C801.001 478.164 827.807 447.17 849.626 412.882C852.599 408.21 871.955 377.558 872.259 373.791L871.932 373.413ZM525.083 519.038C534.439 527.952 540.697 534.533 547.366 546.013C551.208 553.219 553.501 558.368 556.099 566.115C575.204 541.023 594.534 515.761 612.142 489.605C615.176 485.098 627.711 466.48 629.612 462.35L629.145 461.729C613.072 469.296 595.661 478.633 580.033 487.207C562.197 496.992 542.001 507.904 525.083 519.038ZM357.973 659.427C390.354 634.983 420.115 607.249 446.779 576.669C448.564 574.65 457.203 565.018 457.917 562.859L457.616 562.542C446.022 570.347 434.631 578.45 423.454 586.842C417.9 590.959 408.117 597.901 403.598 602.576C396.142 610.29 388.805 621.208 381.97 629.788C373.989 639.807 365.601 649.13 357.524 658.953L357.973 659.427ZM542.378 479.872C556.1 471.975 569.95 464.304 583.924 456.861C597.313 449.883 619.607 437.461 633.082 432.368C615.741 422.159 596.791 414.326 578.345 406.363C575.612 405.184 572.591 404.102 569.975 402.754C565.397 425.622 553.883 459.459 542.378 479.872ZM1029.27 475.328C1001.44 444.906 976.03 421.574 941.428 398.564C927.219 389.114 914.263 381.975 900.17 373.237C896.045 383.815 888.203 397.555 882.413 407.367C859.369 445.869 832.45 481.915 802.076 514.943C827.353 509.175 852.734 503.871 878.207 499.035C885.622 497.624 902.441 494.015 909.509 493.31C949.247 486.161 989.185 480.165 1029.27 475.328ZM429.426 630.656C436.193 627.687 443.002 624.817 449.853 622.049C477.082 610.844 505.927 599.047 533.983 589.907C532.046 567.529 525.568 552.905 508.259 537.642C482.961 572.88 460.932 600.056 429.426 630.656ZM446.736 503.34C444.576 517.9 437.439 536.177 432.118 549.824C438.404 545.482 445.223 540.962 451.376 536.513L479.529 517.902C471.067 513.473 455.735 506.323 446.736 503.34ZM756.182 525.771C736.621 502.686 710.379 480.623 685.552 463.479C680.069 459.693 671.944 453.939 666.121 450.835C640.747 493.971 612.388 535.28 581.253 574.461C604.437 566.15 628.934 559.414 652.6 552.475C683.994 544.187 715.25 535.227 746.877 527.805C749.831 527.112 753.201 526.23 756.182 525.771ZM656.31 416.299C662.036 405.814 667.46 395.166 672.574 384.369C676.295 376.466 698.827 324.324 697.511 318.193C658.05 337.235 622.993 358.682 586.609 382.851C593.878 386.007 602.464 389.476 609.517 392.845C625.372 400.138 640.979 407.96 656.31 416.299ZM540.789 416.093C522.925 429.46 505.516 443.425 488.592 457.964C479.534 465.658 469.766 473.757 461.382 482.104C466.652 484.234 471.931 486.307 477.085 488.705C486.001 493.102 493.747 497.128 502.322 502.208C506.092 494.78 510.72 487.198 514.689 479.753C522.495 465.233 529.332 450.212 535.155 434.789C537.157 429.349 539.919 421.679 540.789 416.093ZM361.387 246.008C388.099 273.707 409.194 295.997 425.63 331.605C438.15 319.284 451.388 307.715 465.274 296.958C476.761 288.422 486.909 280.972 499.049 273.284C477.914 268.866 456.033 266.488 434.765 262.703C412.978 258.825 391.542 253.419 370.037 248.25C367.14 247.563 364.221 246.921 361.387 246.008ZM784.753 371.461C803.066 365.43 837.672 354.74 856.241 351.709C827.596 338.534 797.848 327.899 767.342 319.928C754.409 316.503 738.6 313.464 726.357 309.933C715.429 348.288 707.374 370.699 689.645 406.873C719.862 394.05 753.241 380.618 784.753 371.461Z"/><path fill="#D1D6D7" d="M708.822 562.955C736.805 688.901 731.889 808.805 690.073 931.041C675.296 975.499 655.248 1018.03 630.358 1057.72C626.688 1063.48 622.856 1069.14 618.866 1074.69C492.358 1077.4 283.73 1047.47 186.776 958.315C166.149 939.347 149.45 909.417 149.57 880.451C149.732 841.494 172.953 804.393 199.078 776.674C199.554 776.168 199.69 776.102 200.312 775.595C206.58 773.867 231.957 759.965 239.365 756.167C274.105 738.478 308.669 720.448 343.053 702.078C329.576 743.794 327.202 765.407 346.992 806.389C374.949 765.358 405.721 710.423 419.229 662.697C424.269 660.06 442.477 651.498 447.633 650.272C436.858 705.461 405.064 760.24 376.293 807.477C392.751 801.169 410.236 795.517 427.049 789.144C460.535 776.692 493.266 762.299 525.078 746.04C489.537 716.179 472.689 688.913 455.182 646.608L478.496 636.958C490.744 673.028 505.881 695.146 533.347 721.021C541.196 688.109 552.463 643.384 554.654 609.86L554.891 608.97C571.364 602.771 589.17 597.98 605.93 592.373C635.812 606.027 665.931 619.158 696.273 631.76C693.081 611.104 689.366 590.531 685.132 570.063C686.842 568.296 704.658 564.247 708.822 562.955ZM693.485 812.721C667.683 825.968 641.674 840.82 616.046 854.596C595.485 865.534 574.728 876.099 553.785 886.288C538.942 893.553 520.286 902.538 504.886 908.771C512.173 911.146 519.75 913.726 527.078 915.861C566.656 927.13 620.318 937.44 661.655 937.584C671.184 909.743 680.629 881.299 686.758 852.48C688.331 845.083 694.726 819.036 693.485 812.721ZM326.485 821.836C314.15 795.967 306.038 773.824 308.453 744.35C308.687 741.497 311.72 720.621 311.304 720.136C263.431 751.187 213.473 787.779 185.434 838.52C191.759 838.907 198.097 839.069 204.434 839.004C249.618 837.144 282.344 832.563 326.485 821.836ZM199.931 936.521C207.243 944.268 215.23 951.349 223.798 957.681C240.886 938.285 259.993 918.701 276.458 898.901C281.927 892.324 313.707 854.113 314.402 850.532C313.27 850.063 313.845 850.122 312.682 850.317C285.274 855.795 257.695 860.601 229.779 862.506C211.944 863.723 194.369 863.637 176.523 863.635C171.909 894.344 179.451 913.609 199.931 936.521ZM699.325 673.794C679.387 685.391 659.624 699.253 639.832 711.274C618.244 724.386 596.239 736.756 574.005 748.724C581.695 752.334 589.075 755.818 596.927 759.057C635.823 772.982 658.1 775.397 698.894 777.63C699.63 765.161 704.648 680.689 699.325 673.794ZM606.105 1049.91C619.048 1029.83 630.674 1008.93 640.911 987.344C642.717 983.496 646.739 975.246 647.669 971.428L647.144 970.93C571.199 1003.87 511.145 1019.1 429.631 1033.47C434.346 1034.19 441.494 1035.54 446.033 1035.98C498.918 1045.01 552.456 1049.66 606.105 1049.91ZM556.975 729.509C573.371 720.973 589.523 711.975 605.41 702.527C609.218 700.286 620.763 693.721 623.73 691.309C640.878 682.052 667.462 665.272 683.348 654.072C653.204 639.443 621.676 627.447 591.451 612.966C587.797 611.216 583.141 609.341 579.689 607.325C576.885 645.859 566.902 692.183 556.975 729.509ZM547.665 762.246C534.76 799.152 521.434 836.235 502.959 870.876C500.38 875.711 497.797 881.234 494.927 885.849C522.832 873.044 547.841 861.563 575.33 847.649L665.694 799.998C635.587 796.97 602.788 788.877 575.029 776.573C565.591 772.389 556.257 766.085 547.665 762.246ZM264.567 982.262C273.52 985.572 282.156 990.118 290.98 993.741C311.503 1002.07 338.018 1011.95 359.758 1016.7C375.92 1003.26 391.879 986.815 405.884 971.11C409.487 967.069 428.936 943.733 429.608 940.617L428.994 940.423C382.76 957.97 313.392 977.902 264.567 982.262ZM439.025 909.623C400.904 891.462 378.341 878.626 347.609 849.569C336.69 863.527 326.039 877.667 314.993 891.532C296.894 914.25 277.695 935.26 258.532 957.001C281.365 955.591 314.402 949.568 336.463 943.543C356.742 938.065 376.817 931.856 396.648 924.927C410.849 919.982 424.719 914.322 439.025 909.623ZM400.75 860.836C417.362 870.785 444.155 885.676 462.351 892.554C469.293 880.826 475.842 868.869 481.986 856.704C486.207 848.332 515.623 784.919 514.854 778.77C464.784 801.481 421.926 819.692 368.821 835.401C378.645 845.433 389.375 852.827 400.75 860.836ZM472.259 923.877C451.698 955.793 429.467 985.223 402.512 1012.18C439.355 1007 483.868 998.738 519.86 989.043C546.761 981.901 587.151 970.409 612.285 958.768C583.042 953.899 551.021 948.821 522.457 940.656C512.538 937.85 502.718 934.707 493.013 931.235C488.125 929.46 476.549 924.842 472.259 923.877Z"/><path fill="#D1D6D7" d="M303.438 178.116C319.293 145.948 379.901 121.28 412.406 110.291C443.8 99.6768 478.068 91.1557 510.369 83.529C518.891 81.5169 542.305 75.4753 550.188 74.7901C550.653 92.3052 550.875 109.947 552.871 127.372C558.223 174.088 569.79 220.637 594.197 261.284C590.041 261.619 566.885 257.745 561.933 256.922C555.191 237.927 548.146 225.984 542.468 204.783C534.216 215.888 502.43 237.083 489.473 246.395C480.841 244.769 470.742 243.556 461.862 242.082C444.545 239.234 427.292 236.007 410.116 232.403C398.931 220.531 387.896 205.167 377.593 192.393C369.953 182.919 363.57 172.186 355.582 162.772C339.428 171.749 325.226 180.582 323.982 200.667C316.492 195.965 308.641 185.211 303.438 178.116ZM395.787 143.991C405.482 146.172 415.205 148.229 424.953 150.162C461.207 157.332 497.574 163.927 534.038 169.943C529.701 150.373 526.602 126.027 525.306 105.853L524.45 105.602C479.031 115.484 438.936 126.252 395.787 143.991ZM450.548 238.194C465.627 229.938 478.751 222.625 493.078 212.88C502.037 206.603 510.778 200.022 519.287 193.148L435.357 177.347C420.357 174.395 406.055 171.191 390.926 168.476C409.728 191.752 428.808 217.48 450.548 238.194Z"/></svg>