<svg width="100" height="51" viewBox="0 0 100 51" fill="none" xmlns="http://www.w3.org/2000/svg">
<path fill-rule="evenodd" clip-rule="evenodd" d="M50 50.6773C77.6143 50.6773 100 39.3324 100 25.3386C100 11.3449 77.6143 0 50 0C22.3863 0 0 11.3449 0 25.3386C0 39.3324 22.3863 50.6773 50 50.6773Z" fill="#6E81B6"/>
<path fill-rule="evenodd" clip-rule="evenodd" d="M60.1331 33.5283L62.6133 20.7638C63.1731 17.8828 62.7076 15.734 61.2305 14.3761C59.7994 13.0623 57.3701 12.4232 53.8041 12.4232H49.5089L50.7375 6.09896C50.7605 5.98125 50.7572 5.85991 50.7278 5.74364C50.6984 5.62737 50.6436 5.51905 50.5673 5.42646C50.4911 5.33387 50.3953 5.25931 50.2869 5.20811C50.1784 5.15692 50.06 5.13037 49.94 5.13037H44.0118C43.6225 5.13037 43.2881 5.40668 43.2137 5.78879L40.5795 19.3399C40.34 17.8151 39.7499 16.5043 38.8055 15.4226C37.0667 13.4323 34.3163 12.4232 30.63 12.4232H19.14C18.7506 12.4232 18.4163 12.6995 18.3419 13.081L13.0111 40.511C12.9645 40.7498 13.0268 40.9952 13.1816 41.1827C13.3357 41.3707 13.5655 41.4789 13.8092 41.4789H19.7839C20.1733 41.4789 20.5076 41.2026 20.582 40.8199L21.8716 34.1855H26.3191C28.6529 34.1855 30.6143 33.9328 32.1452 33.4346C33.7105 32.9255 35.1513 32.0621 36.421 30.8735C37.447 29.9309 38.2946 28.8752 38.947 27.7367L37.8823 33.2169C37.8357 33.4558 37.898 33.7024 38.0528 33.8887C38.207 34.0767 38.4373 34.1849 38.6804 34.1849H44.6086C44.9979 34.1849 45.3323 33.9086 45.4067 33.5271L48.3324 18.4705H52.4002C54.1336 18.4705 54.6415 18.8157 54.7799 18.9639C54.9051 19.0993 55.1651 19.5763 54.873 21.08L52.5151 33.2163C52.4925 33.334 52.4961 33.4552 52.5257 33.5713C52.5554 33.6874 52.6103 33.7955 52.6865 33.888C52.7627 33.9804 52.8584 34.0549 52.9667 34.1061C53.075 34.1574 53.1933 34.1841 53.3131 34.1843H59.3357C59.5241 34.1847 59.7068 34.1194 59.8523 33.9997C59.9979 33.88 60.0972 33.7133 60.1331 33.5283ZM32.6488 22.9815C32.2764 24.8951 31.575 26.2597 30.5629 27.0378C29.5351 27.8305 27.8911 28.2319 25.6764 28.2319H23.0282L24.943 18.378H28.3669C30.8821 18.378 31.8954 18.9155 32.3024 19.3659C32.8665 19.9911 32.9862 21.242 32.6488 22.9815ZM85.1041 15.4226C83.3659 13.4323 80.6155 12.4232 76.9292 12.4232H65.4392C65.0492 12.4232 64.7155 12.6995 64.6411 13.081L59.3109 40.511C59.2637 40.7498 59.326 40.9952 59.4808 41.1827C59.6355 41.3701 59.8659 41.4789 60.1077 41.4789H66.0831C66.4731 41.4789 66.8068 41.2026 66.8812 40.8199L68.1708 34.1855H72.6189C74.9533 34.1855 76.9129 33.9328 78.4444 33.4346C80.0103 32.9255 81.4511 32.0621 82.7201 30.8735C83.7794 29.9006 84.6507 28.8069 85.3109 27.6261C85.9711 26.4453 86.4445 25.1285 86.7209 23.7113C87.3998 20.216 86.8563 17.4275 85.1041 15.4226ZM79.2872 22.9815C78.9141 24.8951 78.2128 26.2597 77.2019 27.0378C76.1734 27.8305 74.5295 28.2319 72.3154 28.2319H69.6666L71.5808 18.378H75.0053C77.5205 18.378 78.5338 18.9155 78.9413 19.3659C79.5042 19.9911 79.6245 21.242 79.2872 22.9815Z" fill="white"/>
<path fill-rule="evenodd" clip-rule="evenodd" d="M28.197 17.565C30.4667 17.565 31.98 17.984 32.7364 18.822C33.4922 19.66 33.6723 21.099 33.2769 23.1371C32.8634 25.2599 32.0677 26.775 30.8887 27.6832C29.7097 28.5913 27.9152 29.0447 25.5065 29.0447H21.8715L24.1026 17.565H28.197ZM13.6385 40.6659H19.6133L21.0311 33.3737H26.1492C28.4074 33.3737 30.2654 33.1361 31.7237 32.6615C33.182 32.1869 34.5079 31.3918 35.7008 30.2751C36.702 29.3555 37.5122 28.3398 38.1326 27.2297C38.7523 26.1196 39.1924 24.8953 39.453 23.5561C40.0855 20.3045 39.6084 17.7718 38.0231 15.958C36.4384 14.1436 33.9166 13.2366 30.46 13.2366H18.97L13.6385 40.6659ZM43.8413 5.94385H49.7695L48.3523 13.2366H53.6342C56.9559 13.2366 59.2492 13.8159 60.5104 14.9749C61.7716 16.1339 62.1495 18.0124 61.6453 20.6092L59.1652 33.3737H53.1426L55.5006 21.2368C55.7685 19.8559 55.6705 18.9145 55.2044 18.4121C54.7382 17.9103 53.746 17.6588 52.2297 17.6588H47.4919L44.438 33.3737H38.5098L43.8413 5.94385ZM74.8355 17.565C77.1052 17.565 78.6179 17.984 79.3749 18.822C80.1307 19.66 80.3102 21.099 79.9148 23.1371C79.5025 25.2599 78.7068 26.775 77.5272 27.6832C76.3488 28.5913 74.5537 29.0447 72.1462 29.0447H68.5112L70.7416 17.565H74.8355ZM60.2758 40.6659H66.2512L67.6684 33.3737H72.7864C75.0453 33.3737 76.9033 33.1361 78.3616 32.6615C79.8199 32.1869 81.1458 31.3918 82.3387 30.2751C83.3399 29.3555 84.1501 28.3398 84.7698 27.2297C85.3896 26.1196 85.8303 24.8953 86.0915 23.5561C86.7233 20.3045 86.2463 17.7718 84.6616 15.958C83.0757 14.1436 80.5545 13.2366 77.0979 13.2366H65.6079L60.2758 40.6659Z" fill="black"/>
</svg>
