<svg width="52" height="52" viewBox="0 0 52 52" fill="none" xmlns="http://www.w3.org/2000/svg">
<path d="M44.2936 7.59725C44.5983 7.90189 44.8932 8.21311 45.1796 8.52878L8.52879 45.1796C8.2131 44.8932 7.90121 44.5989 7.59657 44.2943C7.29208 43.9898 6.99818 43.6783 6.71199 43.3628L43.3628 6.71199C43.6783 6.99817 43.9891 7.29277 44.2936 7.59725ZM5.18936 41.5197C4.6594 40.8153 4.17008 40.0903 3.72129 39.3473L39.3473 3.72129C40.0903 4.1701 40.816 4.65869 41.5204 5.18867L5.18936 41.5197ZM46.7036 10.3718C47.2329 11.0755 47.7212 11.8001 48.1696 12.5422L12.5429 48.1689C11.8008 47.7205 11.0762 47.2322 10.3725 46.7029L46.7036 10.3718ZM49.3497 14.7277C49.7531 15.5692 50.1099 16.4273 50.4173 17.2993L17.2999 50.4166C16.4279 50.1092 15.5694 49.7531 14.7277 49.3497L49.3497 14.7277ZM2.54117 37.1618C2.13842 36.3214 1.7827 35.4644 1.47567 34.5937L34.5944 1.47498C35.465 1.78201 36.3221 2.13774 37.1625 2.54047L2.54117 37.1618ZM0.709181 31.9931C0.465461 30.9717 0.28479 29.9386 0.166421 28.8995L28.8995 0.166419C29.9386 0.284801 30.9718 0.465448 31.9931 0.709178L0.709181 31.9931ZM51.1824 19.8998C51.426 20.9212 51.6068 21.9543 51.7251 22.9934L22.9934 51.7251C21.9543 51.6068 20.9212 51.426 19.8998 51.1824L51.1824 19.8998ZM2.30974e-06 25.6989C0.0126029 24.3668 0.126716 23.0358 0.343198 21.718L21.718 0.343195C23.0358 0.126744 24.3669 0.0125776 25.6989 -2.40398e-08L2.30974e-06 25.6989ZM51.8909 26.1947C51.8782 27.5263 51.7641 28.8569 51.5477 30.1743L30.1743 51.5477C28.8569 51.7641 27.5263 51.8781 26.1947 51.8909L51.8909 26.1947ZM1.51918 17.1763C2.77179 13.6799 4.79678 10.3977 7.59726 7.59725C10.398 4.79653 13.6802 2.77102 17.177 1.51848L1.51918 17.1763ZM50.3717 34.7159C49.1191 38.2121 47.0945 41.494 44.2943 44.2943C41.4943 47.0943 38.2123 49.1183 34.7166 50.371L50.3717 34.7159Z" fill="#AD13FB"/>
</svg>
